<svg width="25" height="25" viewBox="0 0 25 25" fill="none" xmlns="http://www.w3.org/2000/svg">
<path d="M22.3214 25H2.67857C1.19922 25 0 23.8008 0 22.3214V2.67857C0 1.19922 1.19922 0 2.67857 0H22.3214C23.8008 0 25 1.19922 25 2.67857V22.3214C25 23.8008 23.8008 25 22.3214 25ZM10.8992 19.528L21.1671 9.2601C21.5157 8.91144 21.5157 8.34609 21.1671 7.99743L19.9044 6.73477C19.5557 6.3861 18.9904 6.38605 18.6417 6.73477L10.2679 15.1085L6.35831 11.199C6.00965 10.8503 5.44431 10.8503 5.09559 11.199L3.83292 12.4617C3.48426 12.8103 3.48426 13.3757 3.83292 13.7243L9.6365 19.5279C9.98521 19.8767 10.5505 19.8767 10.8992 19.528Z" fill="#BF171D"/>
</svg>
