<svg width="32" height="20" viewBox="0 0 32 20" fill="none" xmlns="http://www.w3.org/2000/svg">
<path id="Vector" d="M13 13C13 16.3137 10.3137 19 7 19C3.68629 19 1 16.3137 1 13M13 13C13 9.68629 10.3137 7 7 7C3.68629 7 1 9.68629 1 13M13 13L13.3167 12.8416C15.006 11.9971 16.9941 11.9971 18.6834 12.8416L19 13M1 13V12.1157C1 11.7095 1.08253 11.3074 1.24257 10.934L5.5 1M31 13C31 16.3137 28.3137 19 25 19C21.6863 19 19 16.3137 19 13M31 13C31 9.68629 28.3137 7 25 7C21.6863 7 19 9.68629 19 13M31 13L31 12.1157C31 11.7095 30.9175 11.3074 30.7575 10.934L26.5 1" stroke="black" stroke-width="2" stroke-linecap="round" stroke-linejoin="round"/>
</svg>
