<svg width="35" height="35" viewBox="0 0 35 35" fill="none" xmlns="http://www.w3.org/2000/svg">
<g id="Union">
<path d="M21.0216 10.4631C21.0287 12.4213 19.4727 13.9899 17.519 13.9963C15.5594 14.0045 13.9858 12.4563 13.9713 10.5056C13.9561 8.52957 15.5299 6.94192 17.5007 6.94378C19.4552 6.94527 21.0138 8.505 21.0216 10.4631Z" fill="#EA712A"/>
<path fill-rule="evenodd" clip-rule="evenodd" d="M1.8617 0H33.1383C34.1667 0 35 0.833298 35 1.8617V33.1383C35 34.1667 34.1667 35 33.1383 35H1.8617C0.83367 35 0 34.1667 0 33.1383V1.8617C0 0.833298 0.83367 0 1.8617 0ZM24.6921 10.5626C24.7119 6.53346 21.5135 3.27399 17.5298 3.26394C13.5532 3.25202 10.322 6.46569 10.2986 10.4531C10.2762 14.3973 13.5052 17.6616 17.443 17.675C21.4204 17.6884 24.6709 14.4982 24.6921 10.5626ZM22.4801 22.5221C23.6581 22.0645 24.7186 21.4107 25.5995 20.5055C26.1744 19.9157 26.1807 19.174 25.7127 18.4156C25.3039 17.7498 24.5957 17.471 23.8343 17.6664C23.4426 17.7655 23.1048 17.9651 22.7895 18.206C19.6019 20.3495 15.2391 20.2888 12.0638 18.1069C11.9082 17.9993 11.7459 17.8984 11.5749 17.8183C10.6944 17.4032 9.84617 17.5976 9.34202 18.3206C8.75186 19.1662 8.8267 19.9857 9.57213 20.7021C9.72649 20.85 9.8967 20.9817 10.0664 21.113C10.1095 21.1464 10.1526 21.1798 10.1954 21.2133C11.8989 22.5463 13.8894 23.0892 16.097 23.3197C16.0391 23.3816 15.989 23.4363 15.9433 23.4862C15.8659 23.5708 15.8013 23.6413 15.7336 23.7088C15.4225 24.0206 15.1115 24.3326 14.8004 24.6445C13.4927 25.9558 12.1848 27.2673 10.8746 28.576C10.5391 28.9111 10.2986 29.2842 10.2747 29.7727C10.2401 30.4962 10.6877 31.2152 11.3921 31.5566C12.056 31.8779 12.7355 31.777 13.3071 31.2133C14.5794 29.9589 15.8435 28.697 17.0882 27.4154C17.4002 27.0941 17.57 27.0252 17.9226 27.3946C18.7335 28.2428 19.5666 29.0708 20.4 29.899C20.8118 30.3083 21.2237 30.7176 21.633 31.1295C21.9554 31.4538 22.3188 31.6858 22.785 31.7186C23.5215 31.7692 24.2718 31.2989 24.6072 30.5822C24.9144 29.9272 24.7968 29.2291 24.2405 28.6665C23.1945 27.6088 22.1435 26.5559 21.0924 25.5029C20.5013 24.9108 19.9102 24.3186 19.32 23.7255C19.2312 23.6352 19.1591 23.5564 19.044 23.4306C19.0124 23.3961 18.9776 23.358 18.9384 23.3152C20.1462 23.1707 21.3664 22.9526 22.4801 22.5221Z" fill="#EA712A"/>
</g>
</svg>
