<svg width="20" height="20" viewBox="0 0 20 20" fill="none" xmlns="http://www.w3.org/2000/svg">
<path d="M12.0123 5.97894C12.0164 7.09787 11.1272 7.99426 10.0108 7.99787C8.89106 8.00255 7.99191 7.11787 7.98362 6.00319C7.97489 4.87404 8.87425 3.96681 10.0004 3.96787C11.1172 3.96872 12.0079 4.86 12.0123 5.97894Z" fill="#EA712A"/>
<path fill-rule="evenodd" clip-rule="evenodd" d="M1.06383 0H18.9362C19.5238 0 20 0.47617 20 1.06383V18.9362C20 19.5238 19.5238 20 18.9362 20H1.06383C0.476383 20 0 19.5238 0 18.9362V1.06383C0 0.47617 0.476383 0 1.06383 0ZM14.1098 6.03574C14.1211 3.7334 12.2934 1.87085 10.017 1.86511C7.74468 1.8583 5.8983 3.69468 5.88489 5.97319C5.87213 8.22702 7.71723 10.0923 9.96745 10.1C12.2402 10.1077 14.0977 8.28468 14.1098 6.03574ZM12.8457 12.8698C13.5189 12.6083 14.1249 12.2347 14.6283 11.7174C14.9568 11.3804 14.9604 10.9566 14.693 10.5232C14.4594 10.1428 14.0547 9.9834 13.6196 10.0951C13.3957 10.1517 13.2028 10.2657 13.0226 10.4034C11.2011 11.6283 8.70809 11.5936 6.89362 10.3468C6.80468 10.2853 6.71192 10.2277 6.61426 10.1819C6.11106 9.94468 5.62638 10.0557 5.3383 10.4689C5.00106 10.9521 5.04383 11.4204 5.46979 11.8298C5.55799 11.9143 5.65526 11.9895 5.75221 12.0646C5.77686 12.0837 5.8015 12.1027 5.82596 12.1219C6.79936 12.8836 7.93681 13.1938 9.1983 13.3255C9.16522 13.3609 9.13657 13.3922 9.11047 13.4207C9.06623 13.469 9.02932 13.5093 8.99064 13.5479C8.81288 13.7261 8.63513 13.9043 8.45739 14.0826C7.7101 14.8319 6.96276 15.5813 6.21404 16.3291C6.02234 16.5206 5.88489 16.7338 5.87128 17.013C5.85149 17.4264 6.10723 17.8372 6.50979 18.0323C6.88915 18.216 7.27745 18.1583 7.60404 17.8362C8.33106 17.1194 9.0534 16.3983 9.76468 15.666C9.94298 15.4823 10.04 15.443 10.2415 15.654C10.7049 16.1388 11.1809 16.6119 11.6571 17.0852C11.8924 17.319 12.1278 17.5529 12.3617 17.7883C12.546 17.9736 12.7536 18.1062 13.02 18.1249C13.4409 18.1538 13.8696 17.8851 14.0613 17.4755C14.2368 17.1013 14.1696 16.7023 13.8517 16.3809C13.254 15.7765 12.6534 15.1748 12.0528 14.5731C11.715 14.2347 11.3773 13.8963 11.04 13.5574C10.9892 13.5059 10.9481 13.4608 10.8823 13.3889C10.8643 13.3692 10.8444 13.3474 10.8219 13.323C11.5121 13.2404 12.2094 13.1157 12.8457 12.8698Z" fill="#EA712A"/>
</svg>
