<svg width="30" height="27" viewBox="0 0 30 27" fill="none" xmlns="http://www.w3.org/2000/svg">
<path d="M15 0C11.3755 0 8.4375 2.93802 8.4375 6.5625C8.4375 9.49271 12.7266 14.8333 14.3698 16.7719C14.7026 17.1646 15.2979 17.1646 15.6302 16.7719C17.2734 14.8333 21.5625 9.49271 21.5625 6.5625C21.5625 2.93802 18.6245 0 15 0ZM15 8.75C13.7917 8.75 12.8125 7.77083 12.8125 6.5625C12.8125 5.35417 13.7917 4.375 15 4.375C16.2083 4.375 17.1875 5.35417 17.1875 6.5625C17.1875 7.77083 16.2083 8.75 15 8.75ZM1.04792 11.2474C0.738634 11.3711 0.473505 11.5846 0.286724 11.8604C0.099942 12.1362 7.40733e-05 12.4617 0 12.7948L0 25.8323C0 26.4219 0.595312 26.825 1.14271 26.6062L8.33333 23.3333V11.1937C7.87292 10.3615 7.49635 9.55104 7.22656 8.77604L1.04792 11.2474ZM15 18.7328C14.2672 18.7328 13.574 18.4109 13.0984 17.8495C12.0745 16.6411 10.9854 15.2651 10 13.8536V23.3328L20 26.6661V13.8542C19.0146 15.2651 17.926 16.6417 16.9016 17.85C16.426 18.4109 15.7328 18.7328 15 18.7328ZM28.8573 8.39375L21.6667 11.6667V26.6667L28.9521 23.7526C29.2614 23.629 29.5266 23.4154 29.7134 23.1396C29.9002 22.8638 30 22.5383 30 22.2052V9.16771C30 8.57812 29.4047 8.175 28.8573 8.39375Z" fill="#D52A1D"/>
</svg>
