<svg width="45" height="35" viewBox="0 0 45 35" fill="none" xmlns="http://www.w3.org/2000/svg">
<path id="Vector" d="M19.205 2.49554L17.5732 0C6.27615 7.54902 0 16.7201 0 24.2692C0 31.5686 5.39749 35 9.97908 35C15.7531 35 19.8326 30.1337 19.8326 25.0178C19.8326 20.713 17.0711 17.0321 13.3682 15.6595C12.3013 15.2852 11.2971 14.9733 11.2971 13.164C11.2971 10.8556 12.9916 7.42424 19.205 2.49554ZM44.1213 2.49554L42.4895 0C31.318 7.54902 24.9163 16.7201 24.9163 24.2692C24.9163 31.5686 30.4393 35 35.0209 35C40.8577 35 45 30.1337 45 25.0178C45 20.713 42.1757 17.0321 38.3473 15.6595C37.2803 15.2852 36.3389 14.9733 36.3389 13.164C36.3389 10.8556 38.0962 7.42424 44.1213 2.49554Z" fill="#002D83"/>
</svg>
