<svg width="35" height="35" viewBox="0 0 35 35" fill="none" xmlns="http://www.w3.org/2000/svg">
<g id="&#240;&#159;&#166;&#134; icon &#34;Vkontakte&#34;">
<path id="Vector" d="M35 17.5C35 7.83502 27.165 0 17.5 0C7.83502 0 0 7.83502 0 17.5C0 27.165 7.83502 35 17.5 35C27.165 35 35 27.165 35 17.5Z" fill="#2787F5"/>
<path id="Vector_2" fill-rule="evenodd" clip-rule="evenodd" d="M27.7126 12.4604C27.8606 11.9977 27.7127 11.6577 27.0087 11.6577H24.681C24.0891 11.6577 23.8162 11.9514 23.6682 12.2753C23.6682 12.2753 22.4845 14.9819 20.8075 16.7401C20.265 17.249 20.0183 17.4109 19.7224 17.4109C19.5744 17.4109 19.3603 17.249 19.3603 16.7863V12.4604C19.3603 11.9052 19.1885 11.6577 18.6952 11.6577H15.0373C14.6675 11.6577 14.445 11.9154 14.445 12.1596C14.445 12.686 15.2834 12.8073 15.3699 14.2879V17.5035C15.3699 18.2085 15.2341 18.3363 14.9382 18.3363C14.1491 18.3363 12.2295 15.6176 11.091 12.5066C10.8679 11.9019 10.6441 11.6577 10.0492 11.6577H7.72147C7.05637 11.6577 6.92334 11.9514 6.92334 12.2753C6.92334 12.8536 7.71252 15.7222 10.5978 19.5161C12.5214 22.1071 15.2315 23.5115 17.6976 23.5115C19.1773 23.5115 19.3603 23.1996 19.3603 22.6623V20.7041C19.3603 20.0802 19.5005 19.9557 19.9691 19.9557C20.3143 19.9557 20.9062 20.1176 22.2872 21.3668C23.8655 22.8474 24.1257 23.5115 25.0135 23.5115H27.3413C28.0063 23.5115 28.3389 23.1996 28.147 22.584C27.9371 21.9705 27.1835 21.0803 26.1837 20.0251C25.6411 19.4236 24.8273 18.7759 24.5806 18.4519C24.2354 18.0356 24.334 17.8505 24.5806 17.4804C24.5806 17.4804 27.4167 13.7327 27.7126 12.4604Z" fill="white"/>
</g>
</svg>
