<svg width="20" height="20" viewBox="0 0 20 20" fill="none" xmlns="http://www.w3.org/2000/svg">
<path d="M20 10C20 4.47715 15.5228 0 10 0C4.47715 0 0 4.47715 0 10C0 15.5228 4.47715 20 10 20C15.5228 20 20 15.5228 20 10Z" fill="#2787F5"/>
<path fill-rule="evenodd" clip-rule="evenodd" d="M15.8357 7.12035C15.9202 6.85596 15.8357 6.66168 15.4334 6.66168H14.1033C13.765 6.66168 13.6091 6.82951 13.5246 7.01457C13.5246 7.01457 12.8481 8.56122 11.8899 9.5659C11.5798 9.8567 11.4389 9.94923 11.2698 9.94923C11.1853 9.94923 11.0629 9.8567 11.0629 9.59233V7.12035C11.0629 6.80308 10.9647 6.66168 10.6829 6.66168H8.5926C8.38126 6.66168 8.25413 6.80893 8.25413 6.94849C8.25413 7.24925 8.73325 7.31861 8.78264 8.16465V10.0021C8.78264 10.405 8.70507 10.478 8.53596 10.478C8.08504 10.478 6.98814 8.92446 6.3376 7.14676C6.2101 6.80124 6.08222 6.66168 5.74227 6.66168H4.41213C4.03207 6.66168 3.95605 6.82951 3.95605 7.01457C3.95605 7.34506 4.40702 8.98425 6.05577 11.1522C7.15494 12.6327 8.70359 13.4353 10.1128 13.4353C10.9583 13.4353 11.0629 13.2571 11.0629 12.95V11.831C11.0629 11.4745 11.143 11.4034 11.4108 11.4034C11.608 11.4034 11.9462 11.4959 12.7354 12.2097C13.6373 13.0558 13.786 13.4353 14.2933 13.4353H15.6234C16.0035 13.4353 16.1935 13.2571 16.0839 12.9053C15.9639 12.5547 15.5333 12.046 14.962 11.443C14.6519 11.0993 14.1869 10.7292 14.0459 10.5441C13.8487 10.3062 13.905 10.2004 14.0459 9.98892C14.0459 9.98892 15.6666 7.8474 15.8357 7.12035Z" fill="white"/>
</svg>
