<svg width="35" height="25" viewBox="0 0 35 25" fill="none" xmlns="http://www.w3.org/2000/svg">
<path d="M34.631 5.30469C34.631 5.30469 34.2893 2.89844 33.237 1.83203C31.9114 0.4375 30.4217 0.4375 29.7247 0.355469C24.8458 0 17.5068 0 17.5068 0H17.4932C17.4932 0 10.1542 0 5.24795 0.355469C4.56462 0.4375 3.07497 0.4375 1.73565 1.83203C0.696993 2.89844 0.35533 5.30469 0.35533 5.30469C0.35533 5.30469 0 8.14844 0 10.9785V13.6309C0 16.4609 0.35533 19.291 0.35533 19.291C0.35533 19.291 0.696993 21.6973 1.74932 22.7637C3.07497 24.1582 4.82429 24.1172 5.60328 24.2539C8.40492 24.5273 17.4932 24.6094 17.4932 24.6094C17.4932 24.6094 24.8458 24.5957 29.7384 24.2402C30.4217 24.1582 31.9114 24.1582 33.2507 22.7637C34.303 21.6973 34.6447 19.291 34.6447 19.291C34.6447 19.291 35 16.4609 35 13.6309V10.9785C34.9863 8.14844 34.631 5.30469 34.631 5.30469ZM13.8852 16.8438V7.01367L23.3424 11.9492L13.8852 16.8438Z" fill="url(#paint0_linear_11_61)"/>
<defs>
<linearGradient id="paint0_linear_11_61" x1="4478.25" y1="4.42969e-05" x2="4478.25" y2="4431.02" gradientUnits="userSpaceOnUse">
<stop stop-color="#E52D27"/>
<stop offset="1" stop-color="#BF171D"/>
</linearGradient>
</defs>
</svg>
